<svg xmlns="http://www.w3.org/2000/svg" viewBox="0 0 64 64">
  <defs>
    <linearGradient id="blade" x1="8" y1="8" x2="56" y2="56" gradientUnits="userSpaceOnUse">
      <stop offset="0%"   stop-color="#FFE9A8"/>
      <stop offset="35%"  stop-color="#E8CC5A"/>
      <stop offset="65%"  stop-color="#CFB53B"/>
      <stop offset="100%" stop-color="#7A5A18"/>
    </linearGradient>
  </defs>
  <path d="M 21,7 L 43,7 L 29,22 L 26,23 Z" fill="url(#blade)"/>
  <path d="M 21,7 L 43,7 L 29,22 L 26,23 Z" fill="url(#blade)" transform="rotate(45 32 32)"/>
  <path d="M 21,7 L 43,7 L 29,22 L 26,23 Z" fill="url(#blade)" transform="rotate(90 32 32)"/>
  <path d="M 21,7 L 43,7 L 29,22 L 26,23 Z" fill="url(#blade)" transform="rotate(135 32 32)"/>
  <path d="M 21,7 L 43,7 L 29,22 L 26,23 Z" fill="url(#blade)" transform="rotate(180 32 32)"/>
  <path d="M 21,7 L 43,7 L 29,22 L 26,23 Z" fill="url(#blade)" transform="rotate(225 32 32)"/>
  <path d="M 21,7 L 43,7 L 29,22 L 26,23 Z" fill="url(#blade)" transform="rotate(270 32 32)"/>
  <path d="M 21,7 L 43,7 L 29,22 L 26,23 Z" fill="url(#blade)" transform="rotate(315 32 32)"/>
</svg>
